# xmcd
#
# Track frame offsets: 
#        150
#        50188
#        72588
#        85688
#        98725
#        110013
#        127575
#        139813
#        160388
#        184625
#        203150
#        216575
#        230063
#        245250
#        262588
#        283393
#
# Disc length: 4011 seconds
#
# Revision: 0
# Processed by: cddbd v1.5.2PL0 Copyright (c) Steve Scherf et al.
# Submitted via: ExactAudioCopy v0.95b3
#
DISCID=f00fa910
DTITLE=The Chambers Brothers  - Time Has Come Today (15 Great Songs)  
DYEAR=1900
DGENRE=
TTITLE0=Time Has Come Today
TTITLE1=I Can't Turn You Loose
TTITLE2=Love, Peace And Happiness
TTITLE3=Funky
TTITLE4=All Strung Out Over You
TTITLE5=People Get Ready
TTITLE6=I Can't Stand It
TTITLE7=Romeo And Juliet.
TTITLE8=In The Midnight Hour
TTITLE9=So Tired
TTITLE10=Uptown
TTITLE11=Please Don't Leave Me
TTITLE12=What The World Needs Now
TTITLE13=Are You Ready
TTITLE14=Let's Do It
TTITLE15=Chambers Brothers, The - Time Has Come Today (Mono, single ve
TTITLE15=rsion 1) (bonus)
EXTD=
EXTT0=
EXTT1=
EXTT2=
EXTT3=
EXTT4=
EXTT5=
EXTT6=
EXTT7=
EXTT8=
EXTT9=
EXTT10=
EXTT11=
EXTT12=
EXTT13=
EXTT14=
EXTT15=
PLAYORDER=
